<?xml version="1.0" encoding="UTF-8"?>
<svg version="1.1" xmlns="http://www.w3.org/2000/svg" width="210" height="100">
<path d="M0 0 C2.68898104 1.94091864 4.88961177 4.0075266 7.078125 6.5 C7.81482422 7.28503906 7.81482422 7.28503906 8.56640625 8.0859375 C12.17913083 12.04828058 15.44634531 16.32331962 17.078125 21.5 C16.583125 22.985 16.583125 22.985 16.078125 24.5 C13.453125 25.125 13.453125 25.125 10.078125 24.5 C8.27224949 22.17626313 6.93616042 19.78015228 5.5703125 17.17578125 C0.79276863 8.60871959 -7.87098443 2.64175043 -17.28515625 -0.0625 C-30.14634804 -2.19650516 -41.24672896 -0.38462306 -52.234375 6.75 C-60.29968446 12.75744128 -66.04880614 21.51618956 -67.921875 31.5 C-68.71967336 43.23155949 -67.22898813 51.88577375 -61.921875 62.5 C-61.591875 53.59 -61.261875 44.68 -60.921875 35.5 C-55.641875 35.5 -50.361875 35.5 -44.921875 35.5 C-44.08514348 49.96350195 -44.08514348 49.96350195 -46.234375 53.91015625 C-48.02808305 55.66782999 -49.85813093 57.07217707 -51.921875 58.5 C-53.20008088 59.63760323 -54.47125062 60.78317414 -55.734375 61.9375 C-58.65816743 64.5 -58.65816743 64.5 -60.921875 64.5 C-61.581875 65.82 -62.241875 67.14 -62.921875 68.5 C-64.241875 68.5 -65.561875 68.5 -66.921875 68.5 C-74.90269696 60.20265819 -76.23140997 46.98942856 -76.140625 36.140625 C-75.41394618 24.04661327 -70.16779692 13.26607283 -61.921875 4.5 C-44.02685614 -11.22423897 -20.07518699 -12.95173354 0 0 Z " fill="#113C94" transform="translate(80.921875,10.5)"/>
<path d="M0 0 C-2.97 7.26 -5.94 14.52 -9 22 C-13 20 -13 20 -15 18 C-15.81339844 18.64324219 -16.62679687 19.28648438 -17.46484375 19.94921875 C-20.58296529 22.41069949 -23.70889233 24.86207022 -26.83837891 27.30908203 C-28.31580422 28.46479106 -29.79198559 29.62209163 -31.26708984 30.78076172 C-33.54775664 32.56909409 -35.83551392 34.34797817 -38.125 36.125 C-38.84679443 36.69307373 -39.56858887 37.26114746 -40.31225586 37.84643555 C-40.99553955 38.37406494 -41.67882324 38.90169434 -42.3828125 39.4453125 C-42.98496582 39.91469238 -43.58711914 40.38407227 -44.20751953 40.86767578 C-46.19388499 42.1224787 -47.66549989 42.72328624 -50 43 C-52.83326275 41.38569913 -55.41840668 39.63594723 -58.046875 37.71679688 C-59.91349167 36.39420534 -59.91349167 36.39420534 -63 35 C-67.25503674 36.05394658 -70.79523048 37.86566433 -74.5546875 40.08203125 C-76.09576172 40.98598633 -76.09576172 40.98598633 -77.66796875 41.90820312 C-78.72628906 42.53662109 -79.78460938 43.16503906 -80.875 43.8125 C-81.92558594 44.42931641 -82.97617188 45.04613281 -84.05859375 45.68164062 C-88.62793595 48.37234839 -93.16717416 51.08939573 -97.6328125 53.94921875 C-101 56 -101 56 -103 56 C-101.90303373 52.7091012 -101.15198144 52.03203283 -98.5625 49.875 C-95.37328247 47.16899725 -92.22841403 44.42934885 -89.125 41.625 C-88.28453125 40.86703125 -87.4440625 40.1090625 -86.578125 39.328125 C-85.72734375 38.55984375 -84.8765625 37.7915625 -84 37 C-81.46655949 34.71222645 -78.93236202 32.42606838 -76.3828125 30.15625 C-74.82832168 28.74956322 -73.30036655 27.31281555 -71.8046875 25.84375 C-66.84540722 21.09189209 -66.84540722 21.09189209 -63.125 20.6875 C-58.45630259 22.64835291 -54.24630809 25.25584437 -50 28 C-44.8896886 25.22919177 -40.39460295 22.14548194 -35.875 18.5 C-35.28074219 18.02691406 -34.68648438 17.55382812 -34.07421875 17.06640625 C-31.42467277 14.95495791 -28.7952908 12.82893381 -26.1953125 10.65625 C-24 9 -24 9 -22 9 C-22.495 8.21625 -22.99 7.4325 -23.5 6.625 C-25 4 -25 4 -25 2 C-21.58518736 1.46649143 -18.16796104 0.95041814 -14.75 0.4375 C-13.78191406 0.28603516 -12.81382813 0.13457031 -11.81640625 -0.02148438 C-10.88183594 -0.16005859 -9.94726562 -0.29863281 -8.984375 -0.44140625 C-8.12553711 -0.57232666 -7.26669922 -0.70324707 -6.38183594 -0.83813477 C-4 -1 -4 -1 0 0 Z " fill="#FF7502" transform="translate(110,36)"/>
<path d="M0 0 C5.61 0 11.22 0 17 0 C17.25462408 4.40062431 17.4724179 8.77532217 17.60424805 13.17749023 C17.65918835 14.66893407 17.73398397 16.15979559 17.82983398 17.64916992 C18.60411624 30.00042109 18.60411624 30.00042109 14.64306641 34.93798828 C11.86135351 37.22100061 9.07483827 39.13755283 6 41 C5.26354248 41.57032959 4.52708496 42.14065918 3.76831055 42.72827148 C2 44 2 44 0 44 C0 29.48 0 14.96 0 0 Z " fill="#123D94" transform="translate(60,18)"/>
<path d="M0 0 C2 0 2 0 3.6875 1.5 C5.63582027 5.21108623 5.14139621 8.12833219 4 12 C-1.23549872 24.87701707 -10.38537387 33.00608483 -22.7578125 38.66015625 C-35.59446785 43.96494274 -49.13858415 43.30036972 -62 38 C-65.55425301 35.90952625 -68.81346138 33.61384274 -72 31 C-70.3125 28.9375 -70.3125 28.9375 -68 27 C-64.19750937 27.14648439 -61.25773462 28.73468206 -57.9375 30.5 C-49.32825249 35.06329914 -39.38623813 35.25959722 -29.890625 33.38671875 C-19.3153824 29.91767241 -11.03207592 23.50066636 -5.4375 13.8984375 C-3.20668698 9.40043952 -1.49155614 4.78965544 0 0 Z " fill="#FF7502" transform="translate(94,56)"/>
<path d="M0 0 C5.28 0 10.56 0 16 0 C16 8.91 16 17.82 16 27 C12.19758429 25.47903372 8.63525385 23.85989732 5 22 C4.54625 22.495 4.0925 22.99 3.625 23.5 C2 25 2 25 0 25 C0 16.75 0 8.5 0 0 Z " fill="#123D94" transform="translate(40,32)"/>
<path d="M0 0 C0.66 0 1.32 0 2 0 C2.33 0.66 2.66 1.32 3 2 C3.50015625 1.67257813 4.0003125 1.34515625 4.515625 1.0078125 C7.91792104 -0.3723642 11.14350651 -0.21362838 14.75 -0.125 C15.44738281 -0.11597656 16.14476562 -0.10695312 16.86328125 -0.09765625 C18.57566958 -0.07419888 20.28788004 -0.03833104 22 0 C22 1.98 22 3.96 22 6 C14.74 6 7.48 6 0 6 C0 4.02 0 2.04 0 0 Z M14 1 C14.33 2.32 14.66 3.64 15 5 C15 3.68 15 2.36 15 1 C14.67 1 14.34 1 14 1 Z " fill="#123C95" transform="translate(138,52)"/>
<path d="M0 0 C1.32 0 2.64 0 4 0 C4 0.99 4 1.98 4 3 C4.66 2.01 5.32 1.02 6 0 C6.66 0 7.32 0 8 0 C8.33 0.66 8.66 1.32 9 2 C9.66 1.34 10.32 0.68 11 0 C11 1.65 11 3.3 11 5 C11.66 5 12.32 5 13 5 C13 3.35 13 1.7 13 0 C15.64 0 18.28 0 21 0 C22 3 22 3 22 6 C14.74 6 7.48 6 0 6 C-0.33 4.35 -0.66 2.7 -1 1 C-0.67 0.67 -0.34 0.34 0 0 Z " fill="#113B94" transform="translate(114,52)"/>
<path d="M0 0 C2.97 0 5.94 0 9 0 C9 0.66 9 1.32 9 2 C9.66 2 10.32 2 11 2 C11 1.34 11 0.68 11 0 C11.66 0 12.32 0 13 0 C13 1.98 13 3.96 13 6 C8.71 6 4.42 6 0 6 C0 4.02 0 2.04 0 0 Z " fill="#0E3A96" transform="translate(162,52)"/>
<path d="M0 0 C1.4540625 0.0309375 1.4540625 0.0309375 2.9375 0.0625 C3.5625 2.9375 3.5625 2.9375 3.9375 6.0625 C1.9375 8.0625 1.9375 8.0625 -0.5625 8.375 C-1.8 8.2203125 -1.8 8.2203125 -3.0625 8.0625 C-5.0625 5.0625 -5.0625 5.0625 -4.75 2.9375 C-3.62270141 -0.1369507 -3.48853512 0.07119459 0 0 Z M-1.0625 2.0625 C-1.0625 3.3825 -1.0625 4.7025 -1.0625 6.0625 C-0.4025 5.7325 0.2575 5.4025 0.9375 5.0625 C0.6075 4.0725 0.2775 3.0825 -0.0625 2.0625 C-0.3925 2.0625 -0.7225 2.0625 -1.0625 2.0625 Z " fill="#EC2505" transform="translate(192.0625,41.9375)"/>
<path d="M0 0 C1.99954746 -0.04254356 4.00041636 -0.04080783 6 0 C7 1 7 1 7.125 4 C7 7 7 7 6 8 C4.00041636 8.04080783 1.99954746 8.04254356 0 8 C0 5.36 0 2.72 0 0 Z " fill="#EB2705" transform="translate(113,42)"/>
<path d="M0 0 C3 0.125 3 0.125 4 1.125 C4.1875 3.5625 4.1875 3.5625 4 6.125 C3.34 6.785 2.68 7.445 2 8.125 C-1.125 7.75 -1.125 7.75 -4 7.125 C-4.04254356 5.12545254 -4.04080783 3.12458364 -4 1.125 C-3 0.125 -3 0.125 0 0 Z M-1 2.125 C-1 3.115 -1 4.105 -1 5.125 C-0.34 5.125 0.32 5.125 1 5.125 C1 4.135 1 3.145 1 2.125 C0.34 2.125 -0.32 2.125 -1 2.125 Z " fill="#ED2505" transform="translate(164,41.875)"/>
<path d="M0 0 C1.98 0 3.96 0 6 0 C6 1.65 6 3.3 6 5 C6.66 5 7.32 5 8 5 C8 3.35 8 1.7 8 0 C9.32 0.33 10.64 0.66 12 1 C12 1.99 12 2.98 12 4 C12.66 4.66 13.32 5.32 14 6 C10.7 6 7.4 6 4 6 C4 5.34 4 4.68 4 4 C3.01 4 2.02 4 1 4 C0.67 4.66 0.34 5.32 0 6 C0 4.02 0 2.04 0 0 Z " fill="#103B95" transform="translate(176,52)"/>
<path d="M0 0 C1.98 0 3.96 0 6 0 C6.33 2.64 6.66 5.28 7 8 C4.69 8 2.38 8 0 8 C0 5.36 0 2.72 0 0 Z " fill="#EC2605" transform="translate(150,42)"/>
<path d="M0 0 C1.65 0 3.3 0 5 0 C5 2.31 5 4.62 5 7 C3.35 7.33 1.7 7.66 0 8 C-0.98120464 4.94736336 -0.98120464 3.05263664 0 0 Z " fill="#EB2605" transform="translate(200,42)"/>
<path d="M0 0 C1.98 0 3.96 0 6 0 C6.33 0.99 6.66 1.98 7 3 C5.25 5.6875 5.25 5.6875 3 8 C2.01 8 1.02 8 0 8 C0 5.36 0 2.72 0 0 Z " fill="#EC2706" transform="translate(140,42)"/>
<path d="M0 0 C2.31 0 4.62 0 7 0 C6.01 1.98 5.02 3.96 4 6 C4.66 6 5.32 6 6 6 C6 6.66 6 7.32 6 8 C4.02 8 2.04 8 0 8 C0.50603992 5.83125748 0.99983813 4.00032373 2 2 C1.34 2 0.68 2 0 2 C0 1.34 0 0.68 0 0 Z " fill="#EB2705" transform="translate(130,42)"/>
<path d="M0 0 C1.98 0 3.96 0 6 0 C6 1.65 6 3.3 6 5 C5.01 5.33 4.02 5.66 3 6 C2.67 6.66 2.34 7.32 2 8 C1.34 8 0.68 8 0 8 C0 5.36 0 2.72 0 0 Z " fill="#EC2905" transform="translate(178,42)"/>
<path d="M0 0 C0.66 0 1.32 0 2 0 C2 2.64 2 5.28 2 8 C1.34 8 0.68 8 0 8 C0 5.36 0 2.72 0 0 Z " fill="#EA2805" transform="translate(124,42)"/>
</svg>
