<svg xmlns="http://www.w3.org/2000/svg" viewBox="150 332.97 700 334.05"><defs/><path fill="#123d94" transform="matrix(0.7436576977373339 0 0 0.7436576977373339 1.2817115113133029 -3682.031409121004)" d="M 342.882181239 5607.09728386505 L 270.182181239 5607.09728386505 L 270.182181239 5742.09728386505 L 342.882181239 5676.99728386505 Z"/><path fill="#123d94" transform="matrix(0.7436576977373339 0 0 0.7436576977373339 1.2817115113133029 -3682.031409121004)" d="M 438.682181239 5665.89728386505 L 438.682181239 5540.99728386504 L 365.982181239 5540.99728386504 L 365.982181239 5656.29728386505 L 388.582181239 5636.09728386505 Z"/><path fill="#123d94" transform="matrix(0.7436576977373339 0 0 0.7436576977373339 1.2817115113133029 -3682.031409121004)" d="M 534.582181239 5474.89728386505 L 461.882181239 5474.89728386505 L 461.882181239 5677.49728386505 L 534.582181239 5621.99728386504 Z"/><path fill="#123d94" transform="matrix(0.7436576977373339 0 0 0.7436576977373339 1.2817115113133029 -3682.031409121004)" d="M 268.882181239 5745.39728386505 C 242.582181239 5711.79728386505 226.782181239 5669.49728386505 226.782181239 5623.59728386505 C 226.782181239 5514.59728386505 315.482181239 5425.79728386505 424.582181239 5425.79728386505 C 507.982181239 5425.79728386505 579.382181239 5477.69728386505 608.482181239 5550.89728386505 L 635.882181239 5547.39728386505 C 604.582181239 5460.99728386504 521.682181239 5398.99728386504 424.582181239 5398.99728386504 C 300.682181239 5398.99728386504 199.982181239 5499.79728386505 199.982181239 5623.59728386505 C 199.982181239 5676.39728386505 218.282181239 5724.89728386505 248.882181239 5763.29728386505 L 268.882181239 5745.39728386505 Z"/><path fill="#ff7603" transform="matrix(0.7436576977373339 0 0 0.7436576977373339 1.2817115113133029 -3682.031409121004)" d="M 623.882181239 5655.79728386505 L 618.982181239 5659.49728386505 C 602.082181239 5751.39728386505 521.282181239 5821.29728386505 424.582181239 5821.29728386505 C 379.682181239 5821.29728386505 338.282181239 5806.29728386505 305.082181239 5780.99728386505 L 280.282181239 5795.49728386505 C 319.382181239 5828.29728386505 369.682181239 5848.19728386505 424.582181239 5848.19728386505 C 529.082181239 5848.19728386505 617.182181239 5776.49728386505 642.082181239 5679.59728386505 L 623.882181239 5655.79728386505 Z"/><path fill="#ff7603" transform="matrix(0.7436576977373339 0 0 0.7436576977373339 1.2817115113133029 -3682.031409121004)" d="M 689.982181239 5555.49728386504 L 577.182181239 5569.99728386504 L 596.682181239 5595.49728386504 L 461.482181239 5698.59728386505 L 390.582181239 5656.49728386505 L 206.482181239 5821.29728386505 L 390.382181239 5713.99728386505 L 464.882181239 5758.29728386505 L 626.682181239 5634.89728386505 L 646.182181239 5660.39728386505 Z"/><path id="text" fill="#eb2806" transform="matrix(0.3659700689053716 0 0 0.3659700689053716 383.56702460013656 -3638.19651982161)" d="M 430.62326480092 11289.87138156682 C 432.76726480092 11289.87138156682 434.51926480092 11289.59938156682 435.87926480092 11289.05538156682 C 437.23926480092 11288.51138156682 438.30326480092 11287.80738156682 439.07126480092 11286.94338156682 C 439.83926480092 11286.07938156682 440.36726480092 11285.10338156682 440.65526480092 11284.01538156682 C 440.94326480092 11282.92738156682 441.08726480092 11281.82338156682 441.08726480092 11280.70338156682 C 441.08726480092 11279.42338156682 440.91926480092 11278.27138156682 440.58326480092 11277.24738156682 C 440.24726480092 11276.22338156682 439.67126480092 11275.35938156682 438.85526480092 11274.65538156682 C 438.03926480092 11273.95138156682 436.95926480092 11273.40738156682 435.61526480092 11273.02338156682 C 434.27126480092 11272.63938156682 432.57526480092 11272.44738156682 430.52726480092 11272.44738156682 L 419.19926480092 11272.44738156682 L 419.19926480092 11289.87138156682 L 430.62326480092 11289.87138156682 Z M 419.19926480092 11244.31938156682 L 419.19926480092 11261.59938156682 L 427.64726480092 11261.59938156682 C 429.43926480092 11261.59938156682 431.05526480092 11261.47138156682 432.49526480092 11261.21538156682 C 433.93526480092 11260.95938156682 435.15926480092 11260.51138156682 436.16726480092 11259.87138156682 C 437.17526480092 11259.23138156682 437.94326480092 11258.35138156682 438.47126480092 11257.23138156682 C 438.99926480092 11256.11138156682 439.26326480092 11254.70338156682 439.26326480092 11253.00738156682 C 439.26326480092 11251.34338156682 439.05526480092 11249.95938156682 438.63926480092 11248.85538156682 C 438.22326480092 11247.75138156682 437.58326480092 11246.86338156682 436.71926480092 11246.19138156682 C 435.85526480092 11245.51938156682 434.75926480092 11245.03938156682 433.43126480092 11244.75138156682 C 432.10326480092 11244.46338156682 430.52726480092 11244.31938156682 428.70326480092 11244.31938156682 L 419.19926480092 11244.31938156682 Z M 428.70326480092 11232.17538156682 C 433.53526480092 11232.17538156682 437.64726480092 11232.62338156682 441.03926480092 11233.51938156682 C 444.43126480092 11234.41538156682 447.19926480092 11235.67938156682 449.34326480092 11237.31138156682 C 451.48726480092 11238.94338156682 453.04726480092 11240.92738156682 454.02326480092 11243.26338156682 C 454.99926480092 11245.59938156682 455.48726480092 11248.20738156682 455.48726480092 11251.08738156682 C 455.48726480092 11252.65538156682 455.26326480092 11254.16738156682 454.81526480092 11255.62338156682 C 454.36726480092 11257.07938156682 453.66326480092 11258.43938156682 452.70326480092 11259.70338156682 C 451.74326480092 11260.96738156682 450.51126480092 11262.12738156682 449.00726480092 11263.18338156682 C 447.50326480092 11264.23938156682 445.69526480092 11265.15138156682 443.58326480092 11265.91938156682 C 448.19126480092 11267.03938156682 451.59926480092 11268.84738156682 453.80726480092 11271.34338156682 C 456.01526480092 11273.83938156682 457.11926480092 11277.07138156682 457.11926480092 11281.03938156682 C 457.11926480092 11284.01538156682 456.54326480092 11286.78338156682 455.39126480092 11289.34338156682 C 454.23926480092 11291.90338156682 452.55126480092 11294.13538156682 450.32726480092 11296.03938156682 C 448.10326480092 11297.94338156682 445.35926480092 11299.43138156682 442.09526480092 11300.50338156682 C 438.83126480092 11301.57538156682 435.10326480092 11302.11138156682 430.91126480092 11302.11138156682 L 402.97526480092 11302.11138156682 L 402.97526480092 11232.17538156682 L 428.70326480092 11232.17538156682 Z M 518.31926480092 11302.11138156682 L 501.99926480092 11302.11138156682 L 501.99926480092 11232.17538156682 L 518.31926480092 11232.17538156682 L 518.31926480092 11302.11138156682 Z M 616.19126480092 11238.03138156682 C 616.19126480092 11238.86338156682 616.05526480092 11239.67938156682 615.78326480092 11240.47938156682 C 615.51126480092 11241.27938156682 615.13526480092 11242.03138156682 614.65526480092 11242.73538156682 L 581.82326480092 11289.63138156682 L 615.13526480092 11289.63138156682 L 615.13526480092 11302.11138156682 L 561.18326480092 11302.11138156682 L 561.18326480092 11295.87138156682 C 561.18326480092 11295.13538156682 561.31126480092 11294.40738156682 561.56726480092 11293.68738156682 C 561.82326480092 11292.96738156682 562.17526480092 11292.30338156682 562.62326480092 11291.69538156682 L 595.55126480092 11244.65538156682 L 563.87126480092 11244.65538156682 L 563.87126480092 11232.17538156682 L 616.19126480092 11232.17538156682 L 616.19126480092 11238.03138156682 Z M 684.49526480092 11266.49538156682 C 688.71926480092 11266.49538156682 691.75926480092 11265.48738156682 693.61526480092 11263.47138156682 C 695.47126480092 11261.45538156682 696.39926480092 11258.63938156682 696.39926480092 11255.02338156682 C 696.39926480092 11253.42338156682 696.15926480092 11251.96738156682 695.67926480092 11250.65538156682 C 695.19926480092 11249.34338156682 694.47126480092 11248.21538156682 693.49526480092 11247.27138156682 C 692.51926480092 11246.32738156682 691.28726480092 11245.59938156682 689.79926480092 11245.08738156682 C 688.31126480092 11244.57538156682 686.54326480092 11244.31938156682 684.49526480092 11244.31938156682 L 676.04726480092 11244.31938156682 L 676.04726480092 11266.49538156682 L 684.49526480092 11266.49538156682 Z M 684.49526480092 11232.17538156682 C 689.42326480092 11232.17538156682 693.65526480092 11232.75938156682 697.19126480092 11233.92738156682 C 700.72726480092 11235.09538156682 703.63926480092 11236.70338156682 705.92726480092 11238.75138156682 C 708.21526480092 11240.79938156682 709.90326480092 11243.21538156682 710.99126480092 11245.99938156682 C 712.07926480092 11248.78338156682 712.62326480092 11251.79138156682 712.62326480092 11255.02338156682 C 712.62326480092 11258.51138156682 712.06326480092 11261.71138156682 710.94326480092 11264.62338156682 C 709.82326480092 11267.53538156682 708.11126480092 11270.03138156682 705.80726480092 11272.11138156682 C 703.50326480092 11274.19138156682 700.58326480092 11275.81538156682 697.04726480092 11276.98338156682 C 693.51126480092 11278.15138156682 689.32726480092 11278.73538156682 684.49526480092 11278.73538156682 L 676.04726480092 11278.73538156682 L 676.04726480092 11302.11138156682 L 659.82326480092 11302.11138156682 L 659.82326480092 11232.17538156682 L 684.49526480092 11232.17538156682 Z M 778.38326480092 11265.05538156682 C 780.59126480092 11265.05538156682 782.47126480092 11264.77538156682 784.02326480092 11264.21538156682 C 785.57526480092 11263.65538156682 786.84726480092 11262.87938156682 787.83926480092 11261.88738156682 C 788.83126480092 11260.89538156682 789.55126480092 11259.73538156682 789.99926480092 11258.40738156682 C 790.44726480092 11257.07938156682 790.67126480092 11255.64738156682 790.67126480092 11254.11138156682 C 790.67126480092 11251.03938156682 789.67126480092 11248.63938156682 787.67126480092 11246.91138156682 C 785.67126480092 11245.18338156682 782.57526480092 11244.31938156682 778.38326480092 11244.31938156682 L 771.85526480092 11244.31938156682 L 771.85526480092 11265.05538156682 L 778.38326480092 11265.05538156682 Z M 812.84726480092 11302.11138156682 L 798.15926480092 11302.11138156682 C 795.43926480092 11302.11138156682 793.48726480092 11301.08738156682 792.30326480092 11299.03938156682 L 780.68726480092 11278.73538156682 C 780.14326480092 11277.87138156682 779.53526480092 11277.23938156682 778.86326480092 11276.83938156682 C 778.19126480092 11276.43938156682 777.23126480092 11276.23938156682 775.98326480092 11276.23938156682 L 771.85526480092 11276.23938156682 L 771.85526480092 11302.11138156682 L 755.63126480092 11302.11138156682 L 755.63126480092 11232.17538156682 L 778.38326480092 11232.17538156682 C 783.43926480092 11232.17538156682 787.75126480092 11232.69538156682 791.31926480092 11233.73538156682 C 794.88726480092 11234.77538156682 797.79926480092 11236.22338156682 800.05526480092 11238.07938156682 C 802.31126480092 11239.93538156682 803.95126480092 11242.12738156682 804.97526480092 11244.65538156682 C 805.99926480092 11247.18338156682 806.51126480092 11249.93538156682 806.51126480092 11252.91138156682 C 806.51126480092 11255.18338156682 806.20726480092 11257.32738156682 805.59926480092 11259.34338156682 C 804.99126480092 11261.35938156682 804.09526480092 11263.22338156682 802.91126480092 11264.93538156682 C 801.72726480092 11266.64738156682 800.26326480092 11268.17538156682 798.51926480092 11269.51938156682 C 796.77526480092 11270.86338156682 794.76726480092 11271.96738156682 792.49526480092 11272.83138156682 C 793.55126480092 11273.37538156682 794.54326480092 11274.05538156682 795.47126480092 11274.87138156682 C 796.39926480092 11275.68738156682 797.23126480092 11276.65538156682 797.96726480092 11277.77538156682 L 812.84726480092 11302.11138156682 Z M 920.89526480092 11267.11938156682 C 920.89526480092 11272.17538156682 920.02326480092 11276.87938156682 918.27926480092 11281.23138156682 C 916.53526480092 11285.58338156682 914.07926480092 11289.36738156682 910.91126480092 11292.58338156682 C 907.74326480092 11295.79938156682 903.92726480092 11298.31938156682 899.46326480092 11300.14338156682 C 894.99926480092 11301.96738156682 890.04726480092 11302.87938156682 884.60726480092 11302.87938156682 C 879.16726480092 11302.87938156682 874.20726480092 11301.96738156682 869.72726480092 11300.14338156682 C 865.24726480092 11298.31938156682 861.41526480092 11295.79938156682 858.23126480092 11292.58338156682 C 855.04726480092 11289.36738156682 852.58326480092 11285.58338156682 850.83926480092 11281.23138156682 C 849.09526480092 11276.87938156682 848.22326480092 11272.17538156682 848.22326480092 11267.11938156682 C 848.22326480092 11262.06338156682 849.09526480092 11257.35938156682 850.83926480092 11253.00738156682 C 852.58326480092 11248.65538156682 855.04726480092 11244.87938156682 858.23126480092 11241.67938156682 C 861.41526480092 11238.47938156682 865.24726480092 11235.96738156682 869.72726480092 11234.14338156682 C 874.20726480092 11232.31938156682 879.16726480092 11231.40738156682 884.60726480092 11231.40738156682 C 890.04726480092 11231.40738156682 894.99926480092 11232.32738156682 899.46326480092 11234.16738156682 C 903.92726480092 11236.00738156682 907.74326480092 11238.52738156682 910.91126480092 11241.72738156682 C 914.07926480092 11244.92738156682 916.53526480092 11248.70338156682 918.27926480092 11253.05538156682 C 920.02326480092 11257.40738156682 920.89526480092 11262.09538156682 920.89526480092 11267.11938156682 Z M 904.28726480092 11267.11938156682 C 904.28726480092 11263.66338156682 903.83926480092 11260.55138156682 902.94326480092 11257.78338156682 C 902.04726480092 11255.01538156682 900.75926480092 11252.67138156682 899.07926480092 11250.75138156682 C 897.39926480092 11248.83138156682 895.34326480092 11247.35938156682 892.91126480092 11246.33538156682 C 890.47926480092 11245.31138156682 887.71126480092 11244.79938156682 884.60726480092 11244.79938156682 C 881.47126480092 11244.79938156682 878.67926480092 11245.31138156682 876.23126480092 11246.33538156682 C 873.78326480092 11247.35938156682 871.71926480092 11248.83138156682 870.03926480092 11250.75138156682 C 868.35926480092 11252.67138156682 867.07126480092 11255.01538156682 866.17526480092 11257.78338156682 C 865.27926480092 11260.55138156682 864.83126480092 11263.66338156682 864.83126480092 11267.11938156682 C 864.83126480092 11270.60738156682 865.27926480092 11273.73538156682 866.17526480092 11276.50338156682 C 867.07126480092 11279.27138156682 868.35926480092 11281.61538156682 870.03926480092 11283.53538156682 C 871.71926480092 11285.45538156682 873.78326480092 11286.91938156682 876.23126480092 11287.92738156682 C 878.67926480092 11288.93538156682 881.47126480092 11289.43938156682 884.60726480092 11289.43938156682 C 887.71126480092 11289.43938156682 890.47926480092 11288.93538156682 892.91126480092 11287.92738156682 C 895.34326480092 11286.91938156682 897.39926480092 11285.45538156682 899.07926480092 11283.53538156682 C 900.75926480092 11281.61538156682 902.04726480092 11279.27138156682 902.94326480092 11276.50338156682 C 903.83926480092 11273.73538156682 904.28726480092 11270.60738156682 904.28726480092 11267.11938156682 Z M 1046.79926480092 11266.49538156682 C 1051.02326480092 11266.49538156682 1054.06326480092 11265.48738156682 1055.91926480092 11263.47138156682 C 1057.77526480092 11261.45538156682 1058.70326480092 11258.63938156682 1058.70326480092 11255.02338156682 C 1058.70326480092 11253.42338156682 1058.46326480092 11251.96738156682 1057.98326480092 11250.65538156682 C 1057.50326480092 11249.34338156682 1056.77526480092 11248.21538156682 1055.79926480092 11247.27138156682 C 1054.82326480092 11246.32738156682 1053.59126480092 11245.59938156682 1052.10326480092 11245.08738156682 C 1050.61526480092 11244.57538156682 1048.84726480092 11244.31938156682 1046.79926480092 11244.31938156682 L 1038.35126480092 11244.31938156682 L 1038.35126480092 11266.49538156682 L 1046.79926480092 11266.49538156682 Z M 1046.79926480092 11232.17538156682 C 1051.72726480092 11232.17538156682 1055.95926480092 11232.75938156682 1059.49526480092 11233.92738156682 C 1063.03126480092 11235.09538156682 1065.94326480092 11236.70338156682 1068.23126480092 11238.75138156682 C 1070.51926480092 11240.79938156682 1072.20726480092 11243.21538156682 1073.29526480092 11245.99938156682 C 1074.38326480092 11248.78338156682 1074.92726480092 11251.79138156682 1074.92726480092 11255.02338156682 C 1074.92726480092 11258.51138156682 1074.36726480092 11261.71138156682 1073.24726480092 11264.62338156682 C 1072.12726480092 11267.53538156682 1070.41526480092 11270.03138156682 1068.11126480092 11272.11138156682 C 1065.80726480092 11274.19138156682 1062.88726480092 11275.81538156682 1059.35126480092 11276.98338156682 C 1055.81526480092 11278.15138156682 1051.63126480092 11278.73538156682 1046.79926480092 11278.73538156682 L 1038.35126480092 11278.73538156682 L 1038.35126480092 11302.11138156682 L 1022.12726480092 11302.11138156682 L 1022.12726480092 11232.17538156682 L 1046.79926480092 11232.17538156682 Z M 1186.57526480092 11267.11938156682 C 1186.57526480092 11272.17538156682 1185.70326480092 11276.87938156682 1183.95926480092 11281.23138156682 C 1182.21526480092 11285.58338156682 1179.75926480092 11289.36738156682 1176.59126480092 11292.58338156682 C 1173.42326480092 11295.79938156682 1169.60726480092 11298.31938156682 1165.14326480092 11300.14338156682 C 1160.67926480092 11301.96738156682 1155.72726480092 11302.87938156682 1150.28726480092 11302.87938156682 C 1144.84726480092 11302.87938156682 1139.88726480092 11301.96738156682 1135.40726480092 11300.14338156682 C 1130.92726480092 11298.31938156682 1127.09526480092 11295.79938156682 1123.91126480092 11292.58338156682 C 1120.72726480092 11289.36738156682 1118.26326480092 11285.58338156682 1116.51926480092 11281.23138156682 C 1114.77526480092 11276.87938156682 1113.90326480092 11272.17538156682 1113.90326480092 11267.11938156682 C 1113.90326480092 11262.06338156682 1114.77526480092 11257.35938156682 1116.51926480092 11253.00738156682 C 1118.26326480092 11248.65538156682 1120.72726480092 11244.87938156682 1123.91126480092 11241.67938156682 C 1127.09526480092 11238.47938156682 1130.92726480092 11235.96738156682 1135.40726480092 11234.14338156682 C 1139.88726480092 11232.31938156682 1144.84726480092 11231.40738156682 1150.28726480092 11231.40738156682 C 1155.72726480092 11231.40738156682 1160.67926480092 11232.32738156682 1165.14326480092 11234.16738156682 C 1169.60726480092 11236.00738156682 1173.42326480092 11238.52738156682 1176.59126480092 11241.72738156682 C 1179.75926480092 11244.92738156682 1182.21526480092 11248.70338156682 1183.95926480092 11253.05538156682 C 1185.70326480092 11257.40738156682 1186.57526480092 11262.09538156682 1186.57526480092 11267.11938156682 Z M 1169.96726480092 11267.11938156682 C 1169.96726480092 11263.66338156682 1169.51926480092 11260.55138156682 1168.62326480092 11257.78338156682 C 1167.72726480092 11255.01538156682 1166.43926480092 11252.67138156682 1164.75926480092 11250.75138156682 C 1163.07926480092 11248.83138156682 1161.02326480092 11247.35938156682 1158.59126480092 11246.33538156682 C 1156.15926480092 11245.31138156682 1153.39126480092 11244.79938156682 1150.28726480092 11244.79938156682 C 1147.15126480092 11244.79938156682 1144.35926480092 11245.31138156682 1141.91126480092 11246.33538156682 C 1139.46326480092 11247.35938156682 1137.39926480092 11248.83138156682 1135.71926480092 11250.75138156682 C 1134.03926480092 11252.67138156682 1132.75126480092 11255.01538156682 1131.85526480092 11257.78338156682 C 1130.95926480092 11260.55138156682 1130.51126480092 11263.66338156682 1130.51126480092 11267.11938156682 C 1130.51126480092 11270.60738156682 1130.95926480092 11273.73538156682 1131.85526480092 11276.50338156682 C 1132.75126480092 11279.27138156682 1134.03926480092 11281.61538156682 1135.71926480092 11283.53538156682 C 1137.39926480092 11285.45538156682 1139.46326480092 11286.91938156682 1141.91126480092 11287.92738156682 C 1144.35926480092 11288.93538156682 1147.15126480092 11289.43938156682 1150.28726480092 11289.43938156682 C 1153.39126480092 11289.43938156682 1156.15926480092 11288.93538156682 1158.59126480092 11287.92738156682 C 1161.02326480092 11286.91938156682 1163.07926480092 11285.45538156682 1164.75926480092 11283.53538156682 C 1166.43926480092 11281.61538156682 1167.72726480092 11279.27138156682 1168.62326480092 11276.50338156682 C 1169.51926480092 11273.73538156682 1169.96726480092 11270.60738156682 1169.96726480092 11267.11938156682 Z M 1269.51926480092 11246.38338156682 C 1269.03926480092 11247.15138156682 1268.53526480092 11247.72738156682 1268.00726480092 11248.11138156682 C 1267.47926480092 11248.49538156682 1266.79926480092 11248.68738156682 1265.96726480092 11248.68738156682 C 1265.23126480092 11248.68738156682 1264.43926480092 11248.45538156682 1263.59126480092 11247.99138156682 C 1262.74326480092 11247.52738156682 1261.78326480092 11247.00738156682 1260.71126480092 11246.43138156682 C 1259.63926480092 11245.85538156682 1258.41526480092 11245.33538156682 1257.03926480092 11244.87138156682 C 1255.66326480092 11244.40738156682 1254.09526480092 11244.17538156682 1252.33526480092 11244.17538156682 C 1249.29526480092 11244.17538156682 1247.03126480092 11244.82338156682 1245.54326480092 11246.11938156682 C 1244.05526480092 11247.41538156682 1243.31126480092 11249.16738156682 1243.31126480092 11251.37538156682 C 1243.31126480092 11252.78338156682 1243.75926480092 11253.95138156682 1244.65526480092 11254.87938156682 C 1245.55126480092 11255.80738156682 1246.72726480092 11256.60738156682 1248.18326480092 11257.27938156682 C 1249.63926480092 11257.95138156682 1251.30326480092 11258.56738156682 1253.17526480092 11259.12738156682 C 1255.04726480092 11259.68738156682 1256.95926480092 11260.31138156682 1258.91126480092 11260.99938156682 C 1260.86326480092 11261.68738156682 1262.77526480092 11262.49538156682 1264.64726480092 11263.42338156682 C 1266.51926480092 11264.35138156682 1268.18326480092 11265.53538156682 1269.63926480092 11266.97538156682 C 1271.09526480092 11268.41538156682 1272.27126480092 11270.16738156682 1273.16726480092 11272.23138156682 C 1274.06326480092 11274.29538156682 1274.51126480092 11276.78338156682 1274.51126480092 11279.69538156682 C 1274.51126480092 11282.92738156682 1273.95126480092 11285.95138156682 1272.83126480092 11288.76738156682 C 1271.71126480092 11291.58338156682 1270.08726480092 11294.03938156682 1267.95926480092 11296.13538156682 C 1265.83126480092 11298.23138156682 1263.20726480092 11299.87938156682 1260.08726480092 11301.07938156682 C 1256.96726480092 11302.27938156682 1253.42326480092 11302.87938156682 1249.45526480092 11302.87938156682 C 1247.27926480092 11302.87938156682 1245.06326480092 11302.65538156682 1242.80726480092 11302.20738156682 C 1240.55126480092 11301.75938156682 1238.36726480092 11301.12738156682 1236.25526480092 11300.31138156682 C 1234.14326480092 11299.49538156682 1232.15926480092 11298.52738156682 1230.30326480092 11297.40738156682 C 1228.44726480092 11296.28738156682 1226.83126480092 11295.03938156682 1225.45526480092 11293.66338156682 L 1230.25526480092 11286.07938156682 C 1230.63926480092 11285.53538156682 1231.14326480092 11285.07938156682 1231.76726480092 11284.71138156682 C 1232.39126480092 11284.34338156682 1233.07126480092 11284.15938156682 1233.80726480092 11284.15938156682 C 1234.76726480092 11284.15938156682 1235.73526480092 11284.46338156682 1236.71126480092 11285.07138156682 C 1237.68726480092 11285.67938156682 1238.79126480092 11286.35138156682 1240.02326480092 11287.08738156682 C 1241.25526480092 11287.82338156682 1242.67126480092 11288.49538156682 1244.27126480092 11289.10338156682 C 1245.87126480092 11289.71138156682 1247.75926480092 11290.01538156682 1249.93526480092 11290.01538156682 C 1252.87926480092 11290.01538156682 1255.16726480092 11289.36738156682 1256.79926480092 11288.07138156682 C 1258.43126480092 11286.77538156682 1259.24726480092 11284.71938156682 1259.24726480092 11281.90338156682 C 1259.24726480092 11280.27138156682 1258.79926480092 11278.94338156682 1257.90326480092 11277.91938156682 C 1257.00726480092 11276.89538156682 1255.83126480092 11276.04738156682 1254.37526480092 11275.37538156682 C 1252.91926480092 11274.70338156682 1251.26326480092 11274.11138156682 1249.40726480092 11273.59938156682 C 1247.55126480092 11273.08738156682 1245.64726480092 11272.51938156682 1243.69526480092 11271.89538156682 C 1241.74326480092 11271.27138156682 1239.83926480092 11270.50338156682 1237.98326480092 11269.59138156682 C 1236.12726480092 11268.67938156682 1234.47126480092 11267.47938156682 1233.01526480092 11265.99138156682 C 1231.55926480092 11264.50338156682 1230.38326480092 11262.64738156682 1229.48726480092 11260.42338156682 C 1228.59126480092 11258.19938156682 1228.14326480092 11255.45538156682 1228.14326480092 11252.19138156682 C 1228.14326480092 11249.56738156682 1228.67126480092 11247.00738156682 1229.72726480092 11244.51138156682 C 1230.78326480092 11242.01538156682 1232.33526480092 11239.79138156682 1234.38326480092 11237.83938156682 C 1236.43126480092 11235.88738156682 1238.94326480092 11234.32738156682 1241.91926480092 11233.15938156682 C 1244.89526480092 11231.99138156682 1248.30326480092 11231.40738156682 1252.14326480092 11231.40738156682 C 1254.28726480092 11231.40738156682 1256.37526480092 11231.57538156682 1258.40726480092 11231.91138156682 C 1260.43926480092 11232.24738156682 1262.36726480092 11232.74338156682 1264.19126480092 11233.39938156682 C 1266.01526480092 11234.05538156682 1267.71926480092 11234.83938156682 1269.30326480092 11235.75138156682 C 1270.88726480092 11236.66338156682 1272.30326480092 11237.69538156682 1273.55126480092 11238.84738156682 L 1269.51926480092 11246.38338156682 Z"/><path id="text" fill="#123d94" transform="matrix(0.2927760551242973 0 0 0.2927760551242973 384.44183945284794 -3608.593640111937)" d="M 512.01108100114 14125.95922695853 C 508.52308100115 14124.39122695853 505.78708100115 14122.21522695853 503.80308100114 14119.43122695853 C 501.81908100115 14116.64722695853 500.79508100115 14113.43122695853 500.73108100114 14109.78322695853 L 510.04308100115 14109.78322695853 C 510.36308100115 14112.91922695853 511.65908100114 14115.55922695853 513.93108100115 14117.70322695853 C 516.20308100114 14119.84722695853 519.51508100114 14120.91922695853 523.86708100114 14120.91922695853 C 528.02708100115 14120.91922695853 531.30708100115 14119.87922695853 533.70708100114 14117.79922695853 C 536.10708100114 14115.71922695853 537.30708100115 14113.04722695853 537.30708100115 14109.78322695853 C 537.30708100115 14107.22322695853 536.60308100115 14105.14322695853 535.19508100115 14103.54322695853 C 533.78708100115 14101.94322695853 532.02708100115 14100.72722695853 529.91508100114 14099.89522695853 C 527.80308100114 14099.06322695853 524.95508100115 14098.16722695853 521.37108100114 14097.20722695853 C 516.95508100115 14096.05522695853 513.41908100114 14094.90322695853 510.76308100115 14093.75122695853 C 508.10708100115 14092.59922695853 505.83508100115 14090.79122695853 503.94708100115 14088.32722695853 C 502.05908100115 14085.86322695853 501.11508100115 14082.55122695853 501.11508100115 14078.39122695853 C 501.11508100115 14074.74322695853 502.04308100115 14071.51122695853 503.89908100115 14068.69522695853 C 505.75508100114 14065.87922695853 508.36308100115 14063.70322695853 511.72308100115 14062.16722695853 C 515.08308100114 14060.63122695853 518.93908100114 14059.86322695853 523.29108100115 14059.86322695853 C 529.56308100114 14059.86322695853 534.69908100115 14061.43122695853 538.69908100115 14064.56722695853 C 542.69908100115 14067.70322695853 544.95508100115 14071.86322695853 545.46708100114 14077.04722695853 L 535.86708100114 14077.04722695853 C 535.54708100115 14074.48722695853 534.20308100114 14072.23122695853 531.83508100115 14070.27922695853 C 529.46708100114 14068.32722695853 526.33108100115 14067.35122695853 522.42708100115 14067.35122695853 C 518.77908100114 14067.35122695853 515.80308100114 14068.29522695853 513.49908100115 14070.18322695853 C 511.19508100114 14072.07122695853 510.04308100115 14074.71122695853 510.04308100115 14078.10322695853 C 510.04308100115 14080.53522695853 510.73108100114 14082.51922695853 512.10708100114 14084.05522695853 C 513.48308100115 14085.59122695853 515.17908100114 14086.75922695853 517.19508100115 14087.55922695853 C 519.21108100115 14088.35922695853 522.04308100115 14089.27122695853 525.69108100115 14090.29522695853 C 530.10708100114 14091.51122695853 533.65908100114 14092.71122695853 536.34708100114 14093.89522695853 C 539.03508100114 14095.07922695853 541.33908100115 14096.90322695853 543.25908100115 14099.36722695853 C 545.17908100114 14101.83122695853 546.13908100115 14105.17522695853 546.13908100115 14109.39922695853 C 546.13908100115 14112.66322695853 545.27508100114 14115.73522695853 543.54708100115 14118.61522695853 C 541.81908100114 14121.49522695853 539.25908100115 14123.83122695853 535.86708100114 14125.62322695853 C 532.47508100115 14127.41522695853 528.47508100115 14128.31122695853 523.86708100114 14128.31122695853 C 519.45108100115 14128.31122695853 515.49908100115 14127.52722695853 512.01108100114 14125.95922695853 Z M 598.55508100115 14112.75922695853 L 569.37108100114 14112.75922695853 L 563.99508100115 14127.63922695853 L 554.77908100114 14127.63922695853 L 578.97108100115 14061.11122695853 L 589.05108100115 14061.11122695853 L 613.14708100115 14127.63922695853 L 603.93108100115 14127.63922695853 L 598.55508100115 14112.75922695853 Z M 596.05908100114 14105.65522695853 L 583.96308100114 14071.86322695853 L 571.86708100114 14105.65522695853 L 596.05908100114 14105.65522695853 Z M 632.44308100114 14120.53522695853 L 655.86708100114 14120.53522695853 L 655.86708100114 14127.63922695853 L 623.70708100114 14127.63922695853 L 623.70708100114 14060.72722695853 L 632.44308100114 14060.72722695853 L 632.44308100114 14120.53522695853 Z M 673.91508100114 14067.83122695853 L 673.91508100114 14090.19922695853 L 698.29908100114 14090.19922695853 L 698.29908100114 14097.39922695853 L 673.91508100114 14097.39922695853 L 673.91508100114 14120.43922695853 L 701.17908100114 14120.43922695853 L 701.17908100114 14127.63922695853 L 665.17908100114 14127.63922695853 L 665.17908100114 14060.63122695853 L 701.17908100114 14060.63122695853 L 701.17908100114 14067.83122695853 L 673.91508100114 14067.83122695853 Z M 723.78708100115 14125.95922695853 C 720.29908100115 14124.39122695853 717.56308100115 14122.21522695853 715.57908100114 14119.43122695853 C 713.59508100115 14116.64722695853 712.57108100115 14113.43122695853 712.50708100115 14109.78322695853 L 721.81908100115 14109.78322695853 C 722.13908100115 14112.91922695853 723.43508100114 14115.55922695853 725.70708100115 14117.70322695853 C 727.97908100115 14119.84722695853 731.29108100115 14120.91922695853 735.64308100115 14120.91922695853 C 739.80308100115 14120.91922695853 743.08308100115 14119.87922695853 745.48308100114 14117.79922695853 C 747.88308100115 14115.71922695853 749.08308100115 14113.04722695853 749.08308100115 14109.78322695853 C 749.08308100115 14107.22322695853 748.37908100115 14105.14322695853 746.97108100115 14103.54322695853 C 745.56308100115 14101.94322695853 743.80308100115 14100.72722695853 741.69108100115 14099.89522695853 C 739.57908100114 14099.06322695853 736.73108100115 14098.16722695853 733.14708100115 14097.20722695853 C 728.73108100115 14096.05522695853 725.19508100115 14094.90322695853 722.53908100115 14093.75122695853 C 719.88308100115 14092.59922695853 717.61108100115 14090.79122695853 715.72308100114 14088.32722695853 C 713.83508100115 14085.86322695853 712.89108100115 14082.55122695853 712.89108100115 14078.39122695853 C 712.89108100115 14074.74322695853 713.81908100115 14071.51122695853 715.67508100114 14068.69522695853 C 717.53108100114 14065.87922695853 720.13908100115 14063.70322695853 723.49908100115 14062.16722695853 C 726.85908100115 14060.63122695853 730.71508100115 14059.86322695853 735.06708100115 14059.86322695853 C 741.33908100115 14059.86322695853 746.47508100115 14061.43122695853 750.47508100115 14064.56722695853 C 754.47508100115 14067.70322695853 756.73108100115 14071.86322695853 757.24308100114 14077.04722695853 L 747.64308100115 14077.04722695853 C 747.32308100115 14074.48722695853 745.97908100115 14072.23122695853 743.61108100115 14070.27922695853 C 741.24308100115 14068.32722695853 738.10708100115 14067.35122695853 734.20308100115 14067.35122695853 C 730.55508100115 14067.35122695853 727.57908100114 14068.29522695853 725.27508100115 14070.18322695853 C 722.97108100115 14072.07122695853 721.81908100115 14074.71122695853 721.81908100115 14078.10322695853 C 721.81908100115 14080.53522695853 722.50708100115 14082.51922695853 723.88308100115 14084.05522695853 C 725.25908100115 14085.59122695853 726.95508100115 14086.75922695853 728.97108100115 14087.55922695853 C 730.98708100115 14088.35922695853 733.81908100115 14089.27122695853 737.46708100115 14090.29522695853 C 741.88308100115 14091.51122695853 745.43508100114 14092.71122695853 748.12308100115 14093.89522695853 C 750.81108100115 14095.07922695853 753.11508100115 14096.90322695853 755.03508100115 14099.36722695853 C 756.95508100115 14101.83122695853 757.91508100115 14105.17522695853 757.91508100115 14109.39922695853 C 757.91508100115 14112.66322695853 757.05108100114 14115.73522695853 755.32308100115 14118.61522695853 C 753.59508100115 14121.49522695853 751.03508100115 14123.83122695853 747.64308100115 14125.62322695853 C 744.25108100115 14127.41522695853 740.25108100115 14128.31122695853 735.64308100115 14128.31122695853 C 731.22708100115 14128.31122695853 727.27508100115 14127.52722695853 723.78708100115 14125.95922695853 Z M 864.28308100115 14061.20722695853 L 864.28308100115 14127.63922695853 L 855.54708100115 14127.63922695853 L 855.54708100115 14078.10322695853 L 833.46708100115 14127.63922695853 L 827.32308100115 14127.63922695853 L 805.14708100114 14078.00722695853 L 805.14708100114 14127.63922695853 L 796.41108100115 14127.63922695853 L 796.41108100115 14061.20722695853 L 805.81908100115 14061.20722695853 L 830.39508100115 14116.11922695853 L 854.97108100115 14061.20722695853 L 864.28308100115 14061.20722695853 Z M 918.61908100115 14112.75922695853 L 889.43508100114 14112.75922695853 L 884.05908100115 14127.63922695853 L 874.84308100115 14127.63922695853 L 899.03508100115 14061.11122695853 L 909.11508100115 14061.11122695853 L 933.21108100115 14127.63922695853 L 923.99508100115 14127.63922695853 L 918.61908100115 14112.75922695853 Z M 916.12308100115 14105.65522695853 L 904.02708100115 14071.86322695853 L 891.93108100115 14105.65522695853 L 916.12308100115 14105.65522695853 Z M 983.56308100115 14064.80722695853 C 988.90708100115 14067.52722695853 993.00308100115 14071.41522695853 995.85108100115 14076.47122695853 C 998.69908100115 14081.52722695853 1000.12308100115 14087.47922695853 1000.12308100115 14094.32722695853 C 1000.12308100115 14101.17522695853 998.69908100115 14107.11122695853 995.85108100115 14112.13522695853 C 993.00308100115 14117.15922695853 988.90708100115 14120.99922695853 983.56308100115 14123.65522695853 C 978.21908100115 14126.31122695853 971.89908100115 14127.63922695853 964.60308100115 14127.63922695853 L 943.77108100114 14127.63922695853 L 943.77108100114 14060.72722695853 L 964.60308100115 14060.72722695853 C 971.89908100115 14060.72722695853 978.21908100115 14062.08722695853 983.56308100115 14064.80722695853 Z M 984.37908100115 14113.57522695853 C 988.92308100115 14108.99922695853 991.19508100114 14102.58322695853 991.19508100114 14094.32722695853 C 991.19508100114 14086.00722695853 988.90708100115 14079.51122695853 984.33108100115 14074.83922695853 C 979.75508100115 14070.16722695853 973.17908100115 14067.83122695853 964.60308100115 14067.83122695853 L 952.50708100115 14067.83122695853 L 952.50708100115 14120.43922695853 L 964.60308100115 14120.43922695853 C 973.24308100114 14120.43922695853 979.83508100115 14118.15122695853 984.37908100115 14113.57522695853 Z M 1020.37908100115 14067.83122695853 L 1020.37908100115 14090.19922695853 L 1044.76308100115 14090.19922695853 L 1044.76308100115 14097.39922695853 L 1020.37908100115 14097.39922695853 L 1020.37908100115 14120.43922695853 L 1047.64308100115 14120.43922695853 L 1047.64308100115 14127.63922695853 L 1011.64308100115 14127.63922695853 L 1011.64308100115 14060.63122695853 L 1047.64308100115 14060.63122695853 L 1047.64308100115 14067.83122695853 L 1020.37908100115 14067.83122695853 Z M 1095.88308100115 14125.95922695853 C 1092.39508100115 14124.39122695853 1089.65908100114 14122.21522695853 1087.67508100114 14119.43122695853 C 1085.69108100115 14116.64722695853 1084.66708100115 14113.43122695853 1084.60308100115 14109.78322695853 L 1093.91508100115 14109.78322695853 C 1094.23508100114 14112.91922695853 1095.53108100115 14115.55922695853 1097.80308100115 14117.70322695853 C 1100.07508100115 14119.84722695853 1103.38708100114 14120.91922695853 1107.73908100115 14120.91922695853 C 1111.89908100115 14120.91922695853 1115.17908100114 14119.87922695853 1117.57908100114 14117.79922695853 C 1119.97908100115 14115.71922695853 1121.17908100114 14113.04722695853 1121.17908100114 14109.78322695853 C 1121.17908100114 14107.22322695853 1120.47508100115 14105.14322695853 1119.06708100115 14103.54322695853 C 1117.65908100114 14101.94322695853 1115.89908100115 14100.72722695853 1113.78708100115 14099.89522695853 C 1111.67508100114 14099.06322695853 1108.82708100115 14098.16722695853 1105.24308100115 14097.20722695853 C 1100.82708100115 14096.05522695853 1097.29108100114 14094.90322695853 1094.63508100115 14093.75122695853 C 1091.97908100115 14092.59922695853 1089.70708100115 14090.79122695853 1087.81908100115 14088.32722695853 C 1085.93108100115 14085.86322695853 1084.98708100114 14082.55122695853 1084.98708100114 14078.39122695853 C 1084.98708100114 14074.74322695853 1085.91508100115 14071.51122695853 1087.77108100114 14068.69522695853 C 1089.62708100115 14065.87922695853 1092.23508100114 14063.70322695853 1095.59508100115 14062.16722695853 C 1098.95508100115 14060.63122695853 1102.81108100114 14059.86322695853 1107.16308100115 14059.86322695853 C 1113.43508100115 14059.86322695853 1118.57108100115 14061.43122695853 1122.57108100115 14064.56722695853 C 1126.57108100115 14067.70322695853 1128.82708100115 14071.86322695853 1129.33908100115 14077.04722695853 L 1119.73908100115 14077.04722695853 C 1119.41908100115 14074.48722695853 1118.07508100115 14072.23122695853 1115.70708100115 14070.27922695853 C 1113.33908100115 14068.32722695853 1110.20308100115 14067.35122695853 1106.29908100115 14067.35122695853 C 1102.65108100115 14067.35122695853 1099.67508100114 14068.29522695853 1097.37108100114 14070.18322695853 C 1095.06708100115 14072.07122695853 1093.91508100115 14074.71122695853 1093.91508100115 14078.10322695853 C 1093.91508100115 14080.53522695853 1094.60308100115 14082.51922695853 1095.97908100115 14084.05522695853 C 1097.35508100115 14085.59122695853 1099.05108100115 14086.75922695853 1101.06708100115 14087.55922695853 C 1103.08308100114 14088.35922695853 1105.91508100115 14089.27122695853 1109.56308100114 14090.29522695853 C 1113.97908100115 14091.51122695853 1117.53108100115 14092.71122695853 1120.21908100115 14093.89522695853 C 1122.90708100114 14095.07922695853 1125.21108100115 14096.90322695853 1127.13108100115 14099.36722695853 C 1129.05108100115 14101.83122695853 1130.01108100115 14105.17522695853 1130.01108100115 14109.39922695853 C 1130.01108100115 14112.66322695853 1129.14708100115 14115.73522695853 1127.41908100115 14118.61522695853 C 1125.69108100115 14121.49522695853 1123.13108100115 14123.83122695853 1119.73908100115 14125.62322695853 C 1116.34708100115 14127.41522695853 1112.34708100115 14128.31122695853 1107.73908100115 14128.31122695853 C 1103.32308100115 14128.31122695853 1099.37108100114 14127.52722695853 1095.88308100115 14125.95922695853 Z M 1151.61108100115 14060.72722695853 L 1151.61108100115 14127.63922695853 L 1142.87508100115 14127.63922695853 L 1142.87508100115 14060.72722695853 L 1151.61108100115 14060.72722695853 Z M 1234.36308100115 14061.20722695853 L 1234.36308100115 14127.63922695853 L 1225.62708100115 14127.63922695853 L 1225.62708100115 14078.10322695853 L 1203.54708100115 14127.63922695853 L 1197.40308100115 14127.63922695853 L 1175.22708100115 14078.00722695853 L 1175.22708100115 14127.63922695853 L 1166.49108100115 14127.63922695853 L 1166.49108100115 14061.20722695853 L 1175.89908100115 14061.20722695853 L 1200.47508100115 14116.11922695853 L 1225.05108100115 14061.20722695853 L 1234.36308100115 14061.20722695853 Z M 1288.17108100115 14094.18322695853 C 1284.36308100115 14097.86322695853 1278.55508100115 14099.70322695853 1270.74708100115 14099.70322695853 L 1257.88308100115 14099.70322695853 L 1257.88308100115 14127.63922695853 L 1249.14708100115 14127.63922695853 L 1249.14708100115 14060.72722695853 L 1270.74708100115 14060.72722695853 C 1278.29908100115 14060.72722695853 1284.04308100114 14062.55122695853 1287.97908100115 14066.19922695853 C 1291.91508100115 14069.84722695853 1293.88308100115 14074.55122695853 1293.88308100115 14080.31122695853 C 1293.88308100115 14085.87922695853 1291.97908100115 14090.50322695853 1288.17108100115 14094.18322695853 Z M 1281.49908100115 14089.33522695853 C 1283.80308100115 14087.22322695853 1284.95508100115 14084.21522695853 1284.95508100115 14080.31122695853 C 1284.95508100115 14072.05522695853 1280.21908100115 14067.92722695853 1270.74708100115 14067.92722695853 L 1257.88308100115 14067.92722695853 L 1257.88308100115 14092.50322695853 L 1270.74708100115 14092.50322695853 C 1275.61108100115 14092.50322695853 1279.19508100114 14091.44722695853 1281.49908100115 14089.33522695853 Z M 1313.46708100114 14120.53522695853 L 1336.89108100114 14120.53522695853 L 1336.89108100114 14127.63922695853 L 1304.73108100115 14127.63922695853 L 1304.73108100115 14060.72722695853 L 1313.46708100114 14060.72722695853 L 1313.46708100114 14120.53522695853 Z M 1354.93908100115 14067.83122695853 L 1354.93908100115 14090.19922695853 L 1379.32308100115 14090.19922695853 L 1379.32308100115 14097.39922695853 L 1354.93908100115 14097.39922695853 L 1354.93908100115 14120.43922695853 L 1382.20308100115 14120.43922695853 L 1382.20308100115 14127.63922695853 L 1346.20308100115 14127.63922695853 L 1346.20308100115 14060.63122695853 L 1382.20308100115 14060.63122695853 L 1382.20308100115 14067.83122695853 L 1354.93908100115 14067.83122695853 Z M 1394.01108100115 14126.48722695853 C 1392.85908100115 14125.33522695853 1392.28308100115 14123.92722695853 1392.28308100115 14122.26322695853 C 1392.28308100115 14120.59922695853 1392.85908100115 14119.19122695853 1394.01108100115 14118.03922695853 C 1395.16308100115 14116.88722695853 1396.57108100115 14116.31122695853 1398.23508100114 14116.31122695853 C 1399.83508100115 14116.31122695853 1401.19508100114 14116.88722695853 1402.31508100115 14118.03922695853 C 1403.43508100115 14119.19122695853 1403.99508100115 14120.59922695853 1403.99508100115 14122.26322695853 C 1403.99508100115 14123.92722695853 1403.43508100115 14125.33522695853 1402.31508100115 14126.48722695853 C 1401.19508100114 14127.63922695853 1399.83508100115 14128.21522695853 1398.23508100114 14128.21522695853 C 1396.57108100115 14128.21522695853 1395.16308100115 14127.63922695853 1394.01108100115 14126.48722695853 Z"/></svg>